<svg width="249px" height="211px" viewBox="0 0 249 211" fill="none" xmlns="http://www.w3.org/2000/svg" transform="rotate(0) scale(1, 1)">
<g clip-path="url(#clip0_1715_4621)">
<mask id="mask0_1715_4621" style="mask-type:luminance" maskUnits="userSpaceOnUse" x="-170" y="-185" width="589" height="594">
<path d="M418.233 -184.123H-169.984V408.332H418.233V-184.123Z" fill="oklch(98% 0.016 73.684)"/>
</mask>
<g mask="url(#mask0_1715_4621)">
<path d="M538.243 -270.436H-335.72V502.384H538.243V-270.436Z" stroke="oklch(98% 0.016 73.684)" stroke-width="6.55"/>
</g>
<mask id="mask1_1715_4621" style="mask-type:luminance" maskUnits="userSpaceOnUse" x="-170" y="-185" width="589" height="594">
<path d="M418.233 -184.123H-169.984V408.332H418.233V-184.123Z" fill="oklch(98% 0.016 73.684)"/>
</mask>
<g mask="url(#mask1_1715_4621)">
<path d="M233.363 165.651H231.662V189.065H233.363V165.651ZM207.042 189.064H214.963C216.032 189.064 217.205 188.972 218.48 188.787C220.899 188.319 222.868 187.367 224.392 185.932C226.573 183.898 227.664 181.054 227.664 177.399C227.664 173.7 226.574 170.834 224.392 168.8C222.857 167.353 220.947 166.402 218.657 165.945C217.706 165.76 216.475 165.663 214.963 165.651H207.042V189.064ZM208.741 167.43H215.043C215.864 167.43 216.835 167.501 217.959 167.642C220.141 168.034 221.896 168.849 223.224 170.089C225.016 171.775 225.912 174.213 225.912 177.399C225.912 180.532 225.017 182.94 223.224 184.627C221.333 186.412 218.607 187.302 215.043 187.302H208.741V167.43ZM200.676 165.668V192.867C200.676 195.542 199.748 197.816 197.891 199.687C196.011 201.568 193.753 202.51 191.118 202.51C189.012 202.51 187.117 201.879 185.432 200.617C183.78 199.399 182.636 198.051 181.998 196.571H180.136C180.805 198.551 182.138 200.329 184.137 201.907C186.2 203.505 188.531 204.304 191.135 204.304C194.266 204.304 196.939 203.196 199.153 200.976C201.366 198.735 202.468 196.032 202.458 192.868V165.669H200.676V165.668ZM177.577 182.032L184.317 168.751L191.12 182.032H177.577ZM191.995 183.746L194.734 189.098H196.565L184.318 165L172.103 189.098H173.998L176.721 183.746H191.995ZM156.827 189.555L166.612 172.048V189.065H168.313V165.146L156.827 186.129L145.326 165.146V189.065H147.027V172.048L156.827 189.555ZM137.926 165.62H135.513L120.61 180.58L135.853 195.934H138.251L123.007 180.58L137.926 165.62ZM117.824 165.651H116.123V189.065H117.824V165.651ZM93.3808 182.032L100.12 168.751L106.923 182.032H93.3808ZM107.798 183.746L110.536 189.098H112.366L100.12 165L87.9055 189.098H89.8008L92.5221 183.746H107.798ZM82.448 165.651V185.458L63.1545 165.162V189.064H64.8551V169.289L84.1328 189.554H84.1486V165.651H82.448ZM38.7761 168.817C36.4431 171.166 35.2711 174.001 35.2613 177.318C35.2613 180.636 36.4273 183.469 38.7603 185.818C41.0923 188.167 43.9055 189.343 47.2 189.343C50.4935 189.343 53.3067 188.167 55.6397 185.818C57.9717 183.469 59.1387 180.636 59.1387 177.318C59.1486 174.001 57.9885 171.166 55.6555 168.817C53.3225 166.468 50.5093 165.293 47.2158 165.293C43.9213 165.293 41.1091 166.467 38.7761 168.817ZM39.9421 184.626C37.9441 182.604 36.946 180.166 36.946 177.317C36.946 174.467 37.9441 172.03 39.9421 170.007C41.951 167.995 44.37 166.989 47.2 166.989C50.029 166.989 52.448 167.995 54.4569 170.007C56.4549 172.03 57.4539 174.466 57.4539 177.317C57.4539 180.165 56.4549 182.604 54.4569 184.626C52.448 186.637 50.029 187.645 47.2 187.645C44.37 187.646 41.951 186.638 39.9421 184.626ZM27.4866 166.745C26.0073 166.017 24.1437 165.651 21.8976 165.651H14.8838V189.064H16.5844V167.348H21.8976C23.9282 167.348 25.5261 167.642 26.6931 168.23C28.95 169.371 30.0785 171.334 30.0785 174.12C30.0785 176.916 28.95 178.877 26.6931 180.01C25.5152 180.597 23.6476 180.891 21.0883 180.891H19.7435L21.4441 182.588L28.0537 189.065H30.5646L23.8907 182.523C25.7583 182.305 27.3571 181.729 28.6852 180.793C30.78 179.304 31.8275 177.08 31.8275 174.121C31.8275 170.628 30.3808 168.169 27.4866 166.745Z" fill="oklch(98% 0.016 73.684)"/>
</g>
<mask id="mask2_1715_4621" style="mask-type:luminance" maskUnits="userSpaceOnUse" x="-170" y="-185" width="589" height="594">
<path d="M418.233 -184.123H-169.984V408.332H418.233V-184.123Z" fill="oklch(98% 0.016 73.684)"/>
</mask>
<g mask="url(#mask2_1715_4621)">
<path d="M233.363 165.651H231.662V189.065H233.363V165.651ZM207.042 189.064H214.963C216.032 189.064 217.205 188.972 218.48 188.787C220.899 188.319 222.868 187.367 224.392 185.932C226.573 183.898 227.664 181.054 227.664 177.399C227.664 173.7 226.574 170.834 224.392 168.8C222.857 167.353 220.947 166.402 218.657 165.945C217.706 165.76 216.475 165.663 214.963 165.651H207.042V189.064ZM208.741 167.43H215.043C215.864 167.43 216.835 167.501 217.959 167.642C220.141 168.034 221.896 168.849 223.224 170.089C225.016 171.775 225.912 174.213 225.912 177.399C225.912 180.532 225.017 182.94 223.224 184.627C221.333 186.412 218.607 187.302 215.043 187.302H208.741V167.43ZM200.676 165.668V192.867C200.676 195.542 199.748 197.816 197.891 199.687C196.011 201.568 193.753 202.51 191.118 202.51C189.012 202.51 187.117 201.879 185.432 200.617C183.78 199.399 182.636 198.051 181.998 196.571H180.136C180.805 198.551 182.138 200.329 184.137 201.907C186.2 203.505 188.531 204.304 191.135 204.304C194.266 204.304 196.939 203.196 199.153 200.976C201.366 198.735 202.468 196.032 202.458 192.868V165.669H200.676V165.668ZM177.577 182.032L184.317 168.751L191.12 182.032H177.577ZM191.995 183.746L194.734 189.098H196.565L184.318 165L172.103 189.098H173.998L176.721 183.746H191.995ZM156.827 189.555L166.612 172.048V189.065H168.313V165.146L156.827 186.129L145.326 165.146V189.065H147.027V172.048L156.827 189.555ZM137.926 165.62H135.513L120.61 180.58L135.853 195.934H138.251L123.007 180.58L137.926 165.62ZM117.824 165.651H116.123V189.065H117.824V165.651ZM93.3808 182.032L100.12 168.751L106.923 182.032H93.3808ZM107.798 183.746L110.536 189.098H112.366L100.12 165L87.9055 189.098H89.8008L92.5221 183.746H107.798ZM82.448 165.651V185.458L63.1545 165.162V189.064H64.8551V169.289L84.1328 189.554H84.1486V165.651H82.448ZM38.7761 168.817C36.4431 171.166 35.2711 174.001 35.2613 177.318C35.2613 180.636 36.4273 183.469 38.7603 185.818C41.0923 188.167 43.9055 189.343 47.2 189.343C50.4935 189.343 53.3067 188.167 55.6397 185.818C57.9717 183.469 59.1387 180.636 59.1387 177.318C59.1486 174.001 57.9885 171.166 55.6555 168.817C53.3225 166.468 50.5093 165.293 47.2158 165.293C43.9213 165.293 41.1091 166.467 38.7761 168.817ZM39.9421 184.626C37.9441 182.604 36.946 180.166 36.946 177.317C36.946 174.467 37.9441 172.03 39.9421 170.007C41.951 167.995 44.37 166.989 47.2 166.989C50.029 166.989 52.448 167.995 54.4569 170.007C56.4549 172.03 57.4539 174.466 57.4539 177.317C57.4539 180.165 56.4549 182.604 54.4569 184.626C52.448 186.637 50.029 187.645 47.2 187.645C44.37 187.646 41.951 186.638 39.9421 184.626ZM27.4866 166.745C26.0073 166.017 24.1437 165.651 21.8976 165.651H14.8838V189.064H16.5844V167.348H21.8976C23.9282 167.348 25.5261 167.642 26.6931 168.23C28.95 169.371 30.0785 171.334 30.0785 174.12C30.0785 176.916 28.95 178.877 26.6931 180.01C25.5152 180.597 23.6476 180.891 21.0883 180.891H19.7435L21.4441 182.588L28.0537 189.065H30.5646L23.8907 182.523C25.7583 182.305 27.3571 181.729 28.6852 180.793C30.78 179.304 31.8275 177.08 31.8275 174.121C31.8275 170.628 30.3808 168.169 27.4866 166.745Z" stroke="oklch(98% 0.016 73.684)" stroke-width="0.5"/>
</g>
<path d="M124.17 80.1394L178.415 39.2273V149.804H187.846V19.9053L124.17 68.5845L60.4023 19.9053V149.804H69.8332V39.2273L124.17 80.1394Z" fill="oklch(98% 0.016 73.684)"/>
<mask id="mask3_1715_4621" style="mask-type:luminance" maskUnits="userSpaceOnUse" x="32" y="0" width="183" height="170">
<path d="M215 0H32V170H215V0Z" fill="oklch(98% 0.016 73.684)"/>
</mask>
<g mask="url(#mask3_1715_4621)">
<path d="M147.025 25.3681C138.821 21.4212 128.492 19.4463 116.04 19.4463H77.1514V146.271H86.5812V28.6392H116.04C127.296 28.6392 136.157 30.23 142.624 33.4116C155.138 39.5979 161.394 50.2338 161.394 65.3164C161.394 80.4603 155.138 91.0943 142.624 97.2212C136.098 100.403 125.739 101.994 111.55 101.994H104.095L113.525 111.186L150.168 146.272H164.089L127.086 110.833C137.445 109.655 146.307 106.533 153.671 101.465C165.286 93.3929 171.094 81.3442 171.094 65.3174C171.095 46.4036 163.071 33.0888 147.025 25.3681Z" fill="oklch(98% 0.016 73.684)"/>
</g>
</g>
<defs>
<clipPath id="clip0_1715_4621">
<rect width="249" height="211" fill="oklch(98% 0.016 73.684)"/>
</clipPath>
</defs>
</svg>