<?xml version="1.0" encoding="utf-8"?>
<!-- Generator: Adobe Illustrator 15.0.0, SVG Export Plug-In . SVG Version: 6.00 Build 0)  -->
<!DOCTYPE svg PUBLIC "-//W3C//DTD SVG 1.1//EN" "http://www.w3.org/Graphics/SVG/1.1/DTD/svg11.dtd">
<svg version="1.1" id="Layer_1" xmlns="http://www.w3.org/2000/svg" xmlns:xlink="http://www.w3.org/1999/xlink" x="0px" y="0px"
	 width="595.276px" height="595.276px" viewBox="0 0 595.276 595.276" enable-background="new 0 0 595.276 595.276"
	 xml:space="preserve">
<g>
	<defs>
		<rect id="SVGID_1_" width="595.276" height="595.276"/>
	</defs>
	<clipPath id="SVGID_2_">
		<use xlink:href="#SVGID_1_"  overflow="visible"/>
	</clipPath>
	
		<rect x="-167.725" y="-86.724" clip-path="url(#SVGID_2_)" fill="none" stroke="#000000" stroke-width="6.55" width="884.45" height="776.5"/>
	<path clip-path="url(#SVGID_2_)" d="M408.188,351.44h-1.721v23.525h1.721V351.44z M381.551,374.964h8.016
		c1.082,0,2.269-0.092,3.559-0.278c2.448-0.47,4.441-1.427,5.983-2.869c2.207-2.044,3.312-4.901,3.312-8.573
		c0-3.717-1.104-6.597-3.312-8.64c-1.553-1.454-3.486-2.41-5.804-2.869c-0.962-0.186-2.208-0.283-3.738-0.295h-8.016V374.964z
		 M383.271,353.227h6.377c0.831,0,1.814,0.071,2.951,0.213c2.208,0.394,3.984,1.213,5.328,2.459
		c1.814,1.694,2.721,4.143,2.721,7.345c0,3.147-0.906,5.567-2.721,7.262c-1.913,1.793-4.672,2.688-8.279,2.688h-6.377V353.227z
		 M375.109,351.457v27.328c0,2.688-0.939,4.973-2.819,6.853c-1.902,1.89-4.187,2.836-6.854,2.836c-2.131,0-4.049-0.634-5.754-1.902
		c-1.672-1.224-2.83-2.578-3.475-4.065h-1.885c0.677,1.989,2.026,3.776,4.049,5.361c2.088,1.606,4.447,2.409,7.082,2.409
		c3.169,0,5.874-1.114,8.114-3.344c2.24-2.252,3.355-4.968,3.345-8.147v-27.328H375.109z M351.733,367.899l6.82-13.345l6.885,13.345
		H351.733z M366.324,369.621l2.771,5.377h1.853l-12.394-24.213l-12.361,24.213h1.918l2.755-5.377H366.324z M330.734,375.457
		l9.902-17.59v17.098h1.721v-24.033l-11.623,21.083l-11.639-21.083v24.033h1.721v-17.098L330.734,375.457z M311.606,351.408h-2.442
		l-15.082,15.032l15.426,15.427h2.427l-15.427-15.427L311.606,351.408z M291.262,351.44h-1.721v23.525h1.721V351.44z
		 M266.526,367.899l6.82-13.345l6.885,13.345H266.526z M281.116,369.621l2.771,5.377h1.852l-12.393-24.213l-12.361,24.213h1.918
		l2.754-5.377H281.116z M255.462,351.44v19.901l-19.525-20.393v24.016h1.721v-19.869l19.509,20.361h0.016V351.44H255.462z
		 M211.266,354.621c-2.361,2.36-3.547,5.208-3.557,8.541c0,3.334,1.18,6.18,3.541,8.541c2.36,2.36,5.207,3.541,8.541,3.541
		c3.333,0,6.18-1.181,8.541-3.541c2.36-2.361,3.541-5.207,3.541-8.541c0.01-3.333-1.164-6.181-3.525-8.541
		c-2.361-2.361-5.208-3.541-8.541-3.541C216.473,351.08,213.627,352.259,211.266,354.621 M212.446,370.505
		c-2.022-2.032-3.032-4.481-3.032-7.344c0-2.863,1.01-5.312,3.032-7.345c2.033-2.021,4.481-3.032,7.345-3.032
		c2.863,0,5.311,1.011,7.344,3.032c2.022,2.033,3.033,4.481,3.033,7.345c0,2.862-1.011,5.312-3.033,7.344
		c-2.033,2.021-4.481,3.033-7.344,3.033C216.927,373.539,214.479,372.527,212.446,370.505 M199.841,352.539
		c-1.497-0.732-3.383-1.099-5.656-1.099h-7.098v23.524h1.721v-21.819h5.377c2.055,0,3.672,0.295,4.853,0.886
		c2.284,1.146,3.426,3.119,3.426,5.918c0,2.809-1.142,4.78-3.426,5.918c-1.192,0.59-3.082,0.885-5.672,0.885h-1.361l1.721,1.705
		l6.689,6.508h2.541l-6.754-6.573c1.89-0.219,3.508-0.798,4.852-1.738c2.12-1.496,3.18-3.731,3.18-6.704
		C204.234,356.44,202.77,353.97,199.841,352.539"/>
	<path clip-path="url(#SVGID_2_)" fill="none" stroke="#000000" stroke-width="0.5" d="M408.188,351.44h-1.721v23.525h1.721V351.44z
		 M381.551,374.964h8.016c1.082,0,2.269-0.092,3.559-0.278c2.448-0.47,4.441-1.427,5.983-2.869c2.207-2.044,3.312-4.901,3.312-8.573
		c0-3.717-1.104-6.597-3.312-8.64c-1.553-1.454-3.486-2.41-5.804-2.869c-0.962-0.186-2.208-0.283-3.738-0.295h-8.016V374.964z
		 M383.271,353.227h6.377c0.831,0,1.814,0.071,2.951,0.213c2.208,0.394,3.984,1.213,5.328,2.459
		c1.814,1.694,2.721,4.143,2.721,7.345c0,3.147-0.906,5.567-2.721,7.262c-1.913,1.793-4.672,2.688-8.279,2.688h-6.377V353.227z
		 M375.109,351.457v27.328c0,2.688-0.939,4.973-2.819,6.853c-1.902,1.89-4.187,2.836-6.854,2.836c-2.131,0-4.049-0.634-5.754-1.902
		c-1.672-1.224-2.83-2.578-3.475-4.065h-1.885c0.677,1.989,2.026,3.776,4.049,5.361c2.088,1.606,4.447,2.409,7.082,2.409
		c3.169,0,5.874-1.114,8.114-3.344c2.24-2.252,3.355-4.968,3.345-8.147v-27.328H375.109z M351.733,367.899l6.82-13.345l6.885,13.345
		H351.733z M366.324,369.621l2.771,5.377h1.853l-12.394-24.213l-12.361,24.213h1.918l2.755-5.377H366.324z M330.734,375.457
		l9.902-17.59v17.098h1.721v-24.033l-11.623,21.083l-11.639-21.083v24.033h1.721v-17.098L330.734,375.457z M311.606,351.408h-2.442
		l-15.082,15.032l15.426,15.427h2.427l-15.427-15.427L311.606,351.408z M291.262,351.44h-1.721v23.525h1.721V351.44z
		 M266.526,367.899l6.82-13.345l6.885,13.345H266.526z M281.116,369.621l2.771,5.377h1.852l-12.393-24.213l-12.361,24.213h1.918
		l2.754-5.377H281.116z M255.462,351.44v19.901l-19.525-20.393v24.016h1.721v-19.869l19.509,20.361h0.016V351.44H255.462z
		 M211.266,354.621c-2.361,2.36-3.547,5.208-3.557,8.541c0,3.334,1.18,6.18,3.541,8.541c2.36,2.36,5.207,3.541,8.541,3.541
		c3.333,0,6.18-1.181,8.541-3.541c2.36-2.361,3.541-5.207,3.541-8.541c0.01-3.333-1.164-6.181-3.525-8.541
		c-2.361-2.361-5.208-3.541-8.541-3.541C216.473,351.08,213.627,352.259,211.266,354.621z M212.446,370.505
		c-2.022-2.032-3.032-4.481-3.032-7.344c0-2.863,1.01-5.312,3.032-7.345c2.033-2.021,4.481-3.032,7.345-3.032
		c2.863,0,5.311,1.011,7.344,3.032c2.022,2.033,3.033,4.481,3.033,7.345c0,2.862-1.011,5.312-3.033,7.344
		c-2.033,2.021-4.481,3.033-7.344,3.033C216.927,373.539,214.479,372.527,212.446,370.505z M199.841,352.539
		c-1.497-0.732-3.383-1.099-5.656-1.099h-7.098v23.524h1.721v-21.819h5.377c2.055,0,3.672,0.295,4.853,0.886
		c2.284,1.146,3.426,3.119,3.426,5.918c0,2.809-1.142,4.78-3.426,5.918c-1.192,0.59-3.082,0.885-5.672,0.885h-1.361l1.721,1.705
		l6.689,6.508h2.541l-6.754-6.573c1.89-0.219,3.508-0.798,4.852-1.738c2.12-1.496,3.18-3.731,3.18-6.704
		C204.234,356.44,202.77,353.97,199.841,352.539z"/>
</g>
<polygon points="297.684,265.521 352.58,224.414 352.58,335.517 362.124,335.517 362.124,205 297.684,253.911 233.151,205 
	233.151,335.517 242.695,335.517 242.695,224.414 "/>
<g>
	<defs>
		<rect id="SVGID_3_" width="595.276" height="595.276"/>
	</defs>
	<clipPath id="SVGID_4_">
		<use xlink:href="#SVGID_3_"  overflow="visible"/>
	</clipPath>
	<path clip-path="url(#SVGID_4_)" d="M320.814,211.089c-8.302-4.059-18.755-6.09-31.357-6.09h-39.355v130.427h9.543V214.453h29.812
		c11.391,0,20.359,1.636,26.903,4.908c12.664,6.362,18.996,17.3,18.996,32.811c0,15.574-6.332,26.51-18.996,32.811
		c-6.604,3.272-17.087,4.908-31.447,4.908h-7.544l9.543,9.453l37.083,36.083h14.088l-37.447-36.446
		c10.483-1.211,19.451-4.422,26.904-9.634c11.754-8.301,17.632-20.692,17.632-37.174
		C345.173,232.722,337.053,219.029,320.814,211.089"/>
</g>
</svg>
