<?xml version="1.0" standalone="no"?>
<!DOCTYPE svg PUBLIC "-//W3C//DTD SVG 20010904//EN"
 "http://www.w3.org/TR/2001/REC-SVG-20010904/DTD/svg10.dtd">
<svg version="1.0" xmlns="http://www.w3.org/2000/svg"
 width="500.000000pt" height="500.000000pt" viewBox="0 0 500.000000 500.000000"
 preserveAspectRatio="xMidYMid meet">

<g transform="translate(0.000000,500.000000) scale(0.100000,-0.100000)"
fill="#000000" stroke="none">
<path d="M1200 2660 l0 -260 25 0 25 0 1 180 c1 99 2 184 3 189 3 24 16 17 62
-31 133 -142 328 -343 335 -346 5 -2 9 111 9 252 l0 256 -25 0 -25 0 0 -197
-1 -198 -106 110 c-183 190 -296 305 -299 305 -2 0 -4 -117 -4 -260z"/>
<path d="M1983 2908 c-21 -34 -253 -494 -253 -502 0 -3 11 -6 24 -6 20 0 31
11 53 53 l28 52 157 3 157 3 26 -51 c26 -52 41 -64 70 -58 12 2 6 21 -33 98
-27 52 -86 168 -131 258 -46 89 -84 162 -86 162 -2 0 -7 -6 -12 -12z m76 -222
c33 -65 61 -120 61 -122 0 -2 -56 -4 -125 -4 -69 0 -125 2 -125 5 0 10 121
247 124 244 2 -2 31 -57 65 -123z"/>
<path d="M3730 2839 c-24 -46 -82 -161 -131 -256 -49 -94 -89 -174 -89 -178 0
-3 12 -5 28 -3 21 2 33 14 55 56 l29 53 156 -3 157 -3 28 -52 c22 -42 33 -53
53 -53 13 0 24 3 24 6 0 9 -250 497 -260 508 -5 5 -27 -29 -50 -75z m115 -161
c30 -59 55 -110 55 -113 0 -3 -56 -5 -125 -5 -69 0 -125 3 -125 6 0 3 28 59
62 125 41 79 65 115 70 106 5 -6 33 -60 63 -119z"/>
<path d="M795 2903 c-49 -13 -127 -80 -155 -134 -29 -56 -35 -127 -16 -194 31
-105 140 -185 252 -185 90 0 203 78 238 164 22 53 20 151 -3 203 -44 96 -133
154 -235 152 -34 -1 -70 -4 -81 -6z m176 -71 c95 -49 135 -169 90 -267 -23
-51 -54 -78 -115 -106 -149 -65 -315 79 -276 240 32 136 175 199 301 133z"/>
<path d="M2940 2655 l0 -255 25 0 25 0 2 163 3 162 41 -70 c23 -38 67 -116 98
-173 l58 -103 60 103 c32 57 76 133 96 170 20 37 39 63 42 58 3 -5 4 -77 2
-160 l-4 -150 26 0 26 0 0 256 c0 146 -4 253 -9 250 -5 -3 -40 -63 -78 -133
-173 -315 -156 -291 -175 -261 -8 13 -61 107 -117 211 -57 103 -107 187 -112
187 -5 0 -9 -109 -9 -255z"/>
<path d="M180 2650 l0 -250 25 0 25 0 0 226 0 226 101 -4 101 -3 34 -37 c28
-31 34 -45 34 -82 0 -92 -41 -129 -154 -141 l-70 -7 91 -89 c83 -81 95 -89
129 -89 l39 0 -67 66 -66 67 52 26 c72 37 96 77 96 161 0 80 -23 122 -85 157
-35 20 -54 23 -162 23 l-123 0 0 -250z"/>
<path d="M2320 2650 l0 -250 30 0 30 0 0 250 0 250 -30 0 -30 0 0 -250z"/>
<path d="M2575 2740 l-160 -160 165 -165 c146 -146 169 -165 197 -165 18 0 33
4 33 8 0 4 -72 79 -160 167 l-160 159 157 158 c157 157 158 158 123 158 -32 0
-49 -14 -195 -160z"/>
<path d="M4108 2576 c-3 -310 -4 -326 -24 -352 -68 -91 -155 -115 -249 -69
-35 17 -65 40 -78 61 -16 25 -29 34 -49 34 -32 0 -33 -2 -14 -39 20 -38 88
-97 132 -116 47 -19 141 -19 188 0 55 23 120 93 139 150 14 41 17 96 17 352
l0 303 -30 0 -29 0 -3 -324z"/>
<path d="M4250 2650 l0 -250 118 0 c74 0 137 5 166 14 98 30 154 101 163 207
11 118 -34 207 -128 254 -44 23 -60 25 -184 25 l-135 0 0 -250z m272 188 c128
-38 171 -223 75 -325 -42 -45 -103 -63 -209 -63 l-88 0 0 200 0 200 91 0 c51
0 109 -5 131 -12z"/>
<path d="M4770 2650 l0 -250 25 0 25 0 0 250 0 250 -25 0 -25 0 0 -250z"/>
</g>
</svg>
