<svg width="183px" height="165px" viewBox="0 0 183 165" fill="none" xmlns="http://www.w3.org/2000/svg" transform="rotate(0) scale(1, 1)">
<g clip-path="url(#clip0_1715_4642)">
<mask id="mask0_1715_4642" style="mask-type:luminance" maskUnits="userSpaceOnUse" x="-202" y="-185" width="589" height="594">
<path d="M386.233 -184.123H-201.984V408.332H386.233V-184.123Z" fill="#ffffff"/>
</mask>
<g mask="url(#mask0_1715_4642)">
<path d="M506.243 -270.436H-367.72V502.384H506.243V-270.436Z" stroke="#ffffff" stroke-width="6.55"/>
</g>
<mask id="mask1_1715_4642" style="mask-type:luminance" maskUnits="userSpaceOnUse" x="-202" y="-185" width="589" height="594">
<path d="M386.233 -184.123H-201.984V408.332H386.233V-184.123Z" fill="#ffffff"/>
</mask>
<g mask="url(#mask1_1715_4642)">
<path d="M201.363 165.651H199.662V189.065H201.363V165.651ZM175.042 189.064H182.963C184.032 189.064 185.205 188.972 186.48 188.787C188.899 188.319 190.868 187.367 192.392 185.932C194.573 183.898 195.664 181.054 195.664 177.399C195.664 173.7 194.574 170.834 192.392 168.8C190.857 167.353 188.947 166.402 186.657 165.945C185.706 165.76 184.475 165.663 182.963 165.651H175.042V189.064ZM176.741 167.43H183.043C183.864 167.43 184.835 167.501 185.959 167.642C188.141 168.034 189.896 168.849 191.224 170.089C193.016 171.775 193.912 174.213 193.912 177.399C193.912 180.532 193.017 182.94 191.224 184.627C189.333 186.412 186.607 187.302 183.043 187.302H176.741V167.43ZM168.676 165.668V192.867C168.676 195.542 167.748 197.816 165.891 199.687C164.011 201.568 161.753 202.51 159.118 202.51C157.012 202.51 155.117 201.879 153.432 200.617C151.78 199.399 150.636 198.051 149.998 196.571H148.136C148.805 198.551 150.138 200.329 152.137 201.907C154.2 203.505 156.531 204.304 159.135 204.304C162.266 204.304 164.939 203.196 167.153 200.976C169.366 198.735 170.468 196.032 170.458 192.868V165.669H168.676V165.668ZM145.577 182.032L152.317 168.751L159.12 182.032H145.577ZM159.995 183.746L162.734 189.098H164.565L152.318 165L140.103 189.098H141.998L144.721 183.746H159.995ZM124.827 189.555L134.612 172.048V189.065H136.313V165.146L124.827 186.129L113.326 165.146V189.065H115.027V172.048L124.827 189.555ZM105.926 165.62H103.513L88.6101 180.58L103.853 195.934H106.251L91.0073 180.58L105.926 165.62ZM85.8235 165.651H84.1229V189.065H85.8235V165.651ZM61.3808 182.032L68.12 168.751L74.9233 182.032H61.3808ZM75.7978 183.746L78.536 189.098H80.366L68.12 165L55.9055 189.098H57.8008L60.5221 183.746H75.7978ZM50.448 165.651V185.458L31.1545 165.162V189.064H32.8551V169.289L52.1328 189.554H52.1486V165.651H50.448ZM6.77608 168.817C4.44308 171.166 3.27114 174.001 3.26125 177.318C3.26125 180.636 4.42726 183.469 6.76027 185.818C9.09228 188.167 11.9055 189.343 15.2 189.343C18.4935 189.343 21.3067 188.167 23.6397 185.818C25.9717 183.469 27.1387 180.636 27.1387 177.318C27.1486 174.001 25.9885 171.166 23.6555 168.817C21.3225 166.468 18.5093 165.293 15.2158 165.293C11.9213 165.293 9.10909 166.467 6.77608 168.817ZM7.94208 184.626C5.94406 182.604 4.94604 180.166 4.94604 177.317C4.94604 174.467 5.94406 172.03 7.94208 170.007C9.95098 167.995 12.37 166.989 15.2 166.989C18.029 166.989 20.448 167.995 22.4569 170.007C24.4549 172.03 25.4539 174.466 25.4539 177.317C25.4539 180.165 24.4549 182.604 22.4569 184.626C20.448 186.637 18.029 187.645 15.2 187.645C12.37 187.646 9.95098 186.638 7.94208 184.626ZM-4.51345 166.745C-5.9927 166.017 -7.85634 165.651 -10.1024 165.651H-17.1162V189.064H-15.4156V167.348H-10.1024C-8.07175 167.348 -6.47393 167.642 -5.30693 168.23C-3.05002 169.371 -1.92155 171.334 -1.92155 174.12C-1.92155 176.916 -3.05002 178.877 -5.30693 180.01C-6.4848 180.597 -8.35239 180.891 -10.9117 180.891H-12.2565L-10.5559 182.588L-3.94626 189.065H-1.43539L-8.1093 182.523C-6.24171 182.305 -4.6429 181.729 -3.31483 180.793C-1.21997 179.304 -0.172547 177.08 -0.172547 174.121C-0.172547 170.628 -1.61918 168.169 -4.51345 166.745Z" fill="#ffffff"/>
</g>
<mask id="mask2_1715_4642" style="mask-type:luminance" maskUnits="userSpaceOnUse" x="-202" y="-185" width="589" height="594">
<path d="M386.233 -184.123H-201.984V408.332H386.233V-184.123Z" fill="#ffffff"/>
</mask>
<g mask="url(#mask2_1715_4642)">
<path d="M201.363 165.651H199.662V189.065H201.363V165.651ZM175.042 189.064H182.963C184.032 189.064 185.205 188.972 186.48 188.787C188.899 188.319 190.868 187.367 192.392 185.932C194.573 183.898 195.664 181.054 195.664 177.399C195.664 173.7 194.574 170.834 192.392 168.8C190.857 167.353 188.947 166.402 186.657 165.945C185.706 165.76 184.475 165.663 182.963 165.651H175.042V189.064ZM176.741 167.43H183.043C183.864 167.43 184.835 167.501 185.959 167.642C188.141 168.034 189.896 168.849 191.224 170.089C193.016 171.775 193.912 174.213 193.912 177.399C193.912 180.532 193.017 182.94 191.224 184.627C189.333 186.412 186.607 187.302 183.043 187.302H176.741V167.43ZM168.676 165.668V192.867C168.676 195.542 167.748 197.816 165.891 199.687C164.011 201.568 161.753 202.51 159.118 202.51C157.012 202.51 155.117 201.879 153.432 200.617C151.78 199.399 150.636 198.051 149.998 196.571H148.136C148.805 198.551 150.138 200.329 152.137 201.907C154.2 203.505 156.531 204.304 159.135 204.304C162.266 204.304 164.939 203.196 167.153 200.976C169.366 198.735 170.468 196.032 170.458 192.868V165.669H168.676V165.668ZM145.577 182.032L152.317 168.751L159.12 182.032H145.577ZM159.995 183.746L162.734 189.098H164.565L152.318 165L140.103 189.098H141.998L144.721 183.746H159.995ZM124.827 189.555L134.612 172.048V189.065H136.313V165.146L124.827 186.129L113.326 165.146V189.065H115.027V172.048L124.827 189.555ZM105.926 165.62H103.513L88.6101 180.58L103.853 195.934H106.251L91.0073 180.58L105.926 165.62ZM85.8235 165.651H84.1229V189.065H85.8235V165.651ZM61.3808 182.032L68.12 168.751L74.9233 182.032H61.3808ZM75.7978 183.746L78.536 189.098H80.366L68.12 165L55.9055 189.098H57.8008L60.5221 183.746H75.7978ZM50.448 165.651V185.458L31.1545 165.162V189.064H32.8551V169.289L52.1328 189.554H52.1486V165.651H50.448ZM6.77608 168.817C4.44308 171.166 3.27114 174.001 3.26125 177.318C3.26125 180.636 4.42726 183.469 6.76027 185.818C9.09228 188.167 11.9055 189.343 15.2 189.343C18.4935 189.343 21.3067 188.167 23.6397 185.818C25.9717 183.469 27.1387 180.636 27.1387 177.318C27.1486 174.001 25.9885 171.166 23.6555 168.817C21.3225 166.468 18.5093 165.293 15.2158 165.293C11.9213 165.293 9.10909 166.467 6.77608 168.817ZM7.94208 184.626C5.94406 182.604 4.94604 180.166 4.94604 177.317C4.94604 174.467 5.94406 172.03 7.94208 170.007C9.95098 167.995 12.37 166.989 15.2 166.989C18.029 166.989 20.448 167.995 22.4569 170.007C24.4549 172.03 25.4539 174.466 25.4539 177.317C25.4539 180.165 24.4549 182.604 22.4569 184.626C20.448 186.637 18.029 187.645 15.2 187.645C12.37 187.646 9.95098 186.638 7.94208 184.626ZM-4.51345 166.745C-5.9927 166.017 -7.85634 165.651 -10.1024 165.651H-17.1162V189.064H-15.4156V167.348H-10.1024C-8.07175 167.348 -6.47393 167.642 -5.30693 168.23C-3.05002 169.371 -1.92155 171.334 -1.92155 174.12C-1.92155 176.916 -3.05002 178.877 -5.30693 180.01C-6.4848 180.597 -8.35239 180.891 -10.9117 180.891H-12.2565L-10.5559 182.588L-3.94626 189.065H-1.43539L-8.1093 182.523C-6.24171 182.305 -4.6429 181.729 -3.31483 180.793C-1.21997 179.304 -0.172547 177.08 -0.172547 174.121C-0.172547 170.628 -1.61918 168.169 -4.51345 166.745Z" stroke="#ffffff" stroke-width="0.5"/>
</g>
<path d="M92.1701 80.1394L146.415 39.2273V149.804H155.846V19.9053L92.1701 68.5845L28.4023 19.9053V149.804H37.8332V39.2273L92.1701 80.1394Z" fill="#ffffff"/>
<mask id="mask3_1715_4642" style="mask-type:luminance" maskUnits="userSpaceOnUse" x="0" y="0" width="183" height="170">
<path d="M183 0H0V170H183V0Z" fill="#ffffff"/>
</mask>
<g mask="url(#mask3_1715_4642)">
<path d="M115.025 25.3681C106.821 21.4212 96.4923 19.4463 84.0397 19.4463H45.1514V146.271H54.5812V28.6392H84.0397C95.2956 28.6392 104.157 30.23 110.624 33.4116C123.138 39.5979 129.394 50.2338 129.394 65.3164C129.394 80.4603 123.138 91.0943 110.624 97.2212C104.098 100.403 93.7393 101.994 79.5496 101.994H72.095L81.5249 111.186L118.168 146.272H132.089L95.0861 110.833C105.445 109.655 114.307 106.533 121.671 101.465C133.286 93.3929 139.094 81.3442 139.094 65.3174C139.095 46.4036 131.071 33.0888 115.025 25.3681Z" fill="#ffffff"/>
</g>
</g>
<defs>
<clipPath id="clip0_1715_4642">
<rect width="183" height="165" fill="#ffffff"/>
</clipPath>
</defs>
</svg>