<svg width="249" height="61" viewBox="0 0 249 61" fill="none" xmlns="http://www.w3.org/2000/svg">
<g clip-path="url(#clip0_1714_46)">
<mask id="mask0_1714_46" style="mask-type:luminance" maskUnits="userSpaceOnUse" x="-170" y="-335" width="589" height="594">
<path d="M418.233 -334.123H-169.984V258.332H418.233V-334.123Z" fill="white"/>
</mask>
<g mask="url(#mask0_1714_46)">
<path d="M538.243 -420.436H-335.72V352.384H538.243V-420.436Z" stroke="black" stroke-width="6.55"/>
</g>
<mask id="mask1_1714_46" style="mask-type:luminance" maskUnits="userSpaceOnUse" x="-170" y="-335" width="589" height="594">
<path d="M418.233 -334.123H-169.984V258.332H418.233V-334.123Z" fill="white"/>
</mask>
<g mask="url(#mask1_1714_46)">
<path d="M233.363 15.6514H231.662V39.0649H233.363V15.6514ZM207.042 39.0639H214.963C216.032 39.0639 217.205 38.9724 218.48 38.7872C220.899 38.3195 222.868 37.367 224.392 35.9318C226.573 33.8975 227.664 31.054 227.664 27.3994C227.664 23.7001 226.574 20.8337 224.392 18.8004C222.857 17.3533 220.947 16.4018 218.657 15.945C217.706 15.7599 216.475 15.6633 214.963 15.6514H207.042V39.0639ZM208.741 17.4299H215.043C215.864 17.4299 216.835 17.5006 217.959 17.6419C220.141 18.0341 221.896 18.8492 223.224 20.0893C225.016 21.7752 225.912 24.2126 225.912 27.3994C225.912 30.5315 225.017 32.9401 223.224 34.6271C221.333 36.4116 218.607 37.3023 215.043 37.3023H208.741V17.4299ZM200.676 15.6683V42.8668C200.676 45.5421 199.748 47.8162 197.891 49.6873C196.011 51.5684 193.753 52.5099 191.118 52.5099C189.012 52.5099 187.117 51.8789 185.432 50.6169C183.78 49.3987 182.636 48.0511 181.998 46.5712H180.136C180.805 48.5507 182.138 50.3293 184.137 51.9068C186.2 53.5052 188.531 54.3044 191.135 54.3044C194.266 54.3044 196.939 53.1956 199.153 50.9762C201.366 48.7349 202.468 46.0317 202.458 42.8678V15.6693H200.676V15.6683ZM177.577 32.0324L184.317 18.7506L191.12 32.0324H177.577ZM191.995 33.7462L194.734 39.0977H196.565L184.318 14.9995L172.103 39.0977H173.998L176.721 33.7462H191.995ZM156.827 39.5546L166.612 22.0479V39.0649H168.313V15.1458L156.827 36.1289L145.326 15.1458V39.0649H147.027V22.0479L156.827 39.5546ZM137.926 15.6195H135.513L120.61 30.5803L135.853 45.9342H138.251L123.007 30.5803L137.926 15.6195ZM117.824 15.6514H116.123V39.0649H117.824V15.6514ZM93.3808 32.0324L100.12 18.7506L106.923 32.0324H93.3808ZM107.798 33.7462L110.536 39.0977H112.366L100.12 14.9995L87.9055 39.0977H89.8008L92.5221 33.7462H107.798ZM82.448 15.6514V35.4581L63.1545 15.1617V39.0639H64.8551V19.2891L84.1328 39.5536H84.1486V15.6514H82.448ZM38.7761 18.8173C36.4431 21.1661 35.2711 24.0006 35.2613 27.3178C35.2613 30.636 36.4273 33.4686 38.7603 35.8184C41.0923 38.1672 43.9055 39.3426 47.2 39.3426C50.4935 39.3426 53.3067 38.1672 55.6397 35.8184C57.9717 33.4686 59.1387 30.636 59.1387 27.3178C59.1486 24.0006 57.9885 21.1661 55.6555 18.8173C53.3225 16.4675 50.5093 15.2931 47.2158 15.2931C43.9213 15.2931 41.1091 16.4665 38.7761 18.8173ZM39.9421 34.6261C37.9441 32.6037 36.946 30.1663 36.946 27.3169C36.946 24.4674 37.9441 22.03 39.9421 20.0067C41.951 17.9953 44.37 16.989 47.2 16.989C50.029 16.989 52.448 17.9953 54.4569 20.0067C56.4549 22.03 57.4539 24.4664 57.4539 27.3169C57.4539 30.1653 56.4549 32.6037 54.4569 34.6261C52.448 36.6375 50.029 37.6447 47.2 37.6447C44.37 37.6457 41.951 36.6385 39.9421 34.6261ZM27.4866 16.7452C26.0073 16.0167 24.1437 15.6514 21.8976 15.6514H14.8838V39.0639H16.5844V17.3483H21.8976C23.9282 17.3483 25.5261 17.6419 26.6931 18.2301C28.95 19.3707 30.0785 21.3343 30.0785 24.1201C30.0785 26.9158 28.95 28.8774 26.6931 30.01C25.5152 30.5972 23.6476 30.8909 21.0883 30.8909H19.7435L21.4441 32.5878L28.0537 39.0649H30.5646L23.8907 32.5231C25.7583 32.3051 27.3571 31.7288 28.6852 30.7933C30.78 29.3044 31.8275 27.08 31.8275 24.1211C31.8275 20.6277 30.3808 18.1694 27.4866 16.7452Z" fill="black"/>
</g>
<mask id="mask2_1714_46" style="mask-type:luminance" maskUnits="userSpaceOnUse" x="-170" y="-335" width="589" height="594">
<path d="M418.233 -334.123H-169.984V258.332H418.233V-334.123Z" fill="white"/>
</mask>
<g mask="url(#mask2_1714_46)">
<path d="M233.363 15.6514H231.662V39.0649H233.363V15.6514ZM207.042 39.0639H214.963C216.032 39.0639 217.205 38.9724 218.48 38.7872C220.899 38.3195 222.868 37.367 224.392 35.9318C226.573 33.8975 227.664 31.054 227.664 27.3994C227.664 23.7001 226.574 20.8337 224.392 18.8004C222.857 17.3533 220.947 16.4018 218.657 15.945C217.706 15.7599 216.475 15.6633 214.963 15.6514H207.042V39.0639ZM208.741 17.4299H215.043C215.864 17.4299 216.835 17.5006 217.959 17.6419C220.141 18.0341 221.896 18.8492 223.224 20.0893C225.016 21.7752 225.912 24.2126 225.912 27.3994C225.912 30.5315 225.017 32.9401 223.224 34.6271C221.333 36.4116 218.607 37.3023 215.043 37.3023H208.741V17.4299ZM200.676 15.6683V42.8668C200.676 45.5421 199.748 47.8162 197.891 49.6873C196.011 51.5684 193.753 52.5099 191.118 52.5099C189.012 52.5099 187.117 51.8789 185.432 50.6169C183.78 49.3987 182.636 48.0511 181.998 46.5712H180.136C180.805 48.5507 182.138 50.3293 184.137 51.9068C186.2 53.5052 188.531 54.3044 191.135 54.3044C194.266 54.3044 196.939 53.1956 199.153 50.9762C201.366 48.7349 202.468 46.0317 202.458 42.8678V15.6693H200.676V15.6683ZM177.577 32.0324L184.317 18.7506L191.12 32.0324H177.577ZM191.995 33.7462L194.734 39.0977H196.565L184.318 14.9995L172.103 39.0977H173.998L176.721 33.7462H191.995ZM156.827 39.5546L166.612 22.0479V39.0649H168.313V15.1458L156.827 36.1289L145.326 15.1458V39.0649H147.027V22.0479L156.827 39.5546ZM137.926 15.6195H135.513L120.61 30.5803L135.853 45.9342H138.251L123.007 30.5803L137.926 15.6195ZM117.824 15.6514H116.123V39.0649H117.824V15.6514ZM93.3808 32.0324L100.12 18.7506L106.923 32.0324H93.3808ZM107.798 33.7462L110.536 39.0977H112.366L100.12 14.9995L87.9055 39.0977H89.8008L92.5221 33.7462H107.798ZM82.448 15.6514V35.4581L63.1545 15.1617V39.0639H64.8551V19.2891L84.1328 39.5536H84.1486V15.6514H82.448ZM38.7761 18.8173C36.4431 21.1661 35.2711 24.0006 35.2613 27.3178C35.2613 30.636 36.4273 33.4686 38.7603 35.8184C41.0923 38.1672 43.9055 39.3426 47.2 39.3426C50.4935 39.3426 53.3067 38.1672 55.6397 35.8184C57.9717 33.4686 59.1387 30.636 59.1387 27.3178C59.1486 24.0006 57.9885 21.1661 55.6555 18.8173C53.3225 16.4675 50.5093 15.2931 47.2158 15.2931C43.9213 15.2931 41.1091 16.4665 38.7761 18.8173ZM39.9421 34.6261C37.9441 32.6037 36.946 30.1663 36.946 27.3169C36.946 24.4674 37.9441 22.03 39.9421 20.0067C41.951 17.9953 44.37 16.989 47.2 16.989C50.029 16.989 52.448 17.9953 54.4569 20.0067C56.4549 22.03 57.4539 24.4664 57.4539 27.3169C57.4539 30.1653 56.4549 32.6037 54.4569 34.6261C52.448 36.6375 50.029 37.6447 47.2 37.6447C44.37 37.6457 41.951 36.6385 39.9421 34.6261ZM27.4866 16.7452C26.0073 16.0167 24.1437 15.6514 21.8976 15.6514H14.8838V39.0639H16.5844V17.3483H21.8976C23.9282 17.3483 25.5261 17.6419 26.6931 18.2301C28.95 19.3707 30.0785 21.3343 30.0785 24.1201C30.0785 26.9158 28.95 28.8774 26.6931 30.01C25.5152 30.5972 23.6476 30.8909 21.0883 30.8909H19.7435L21.4441 32.5878L28.0537 39.0649H30.5646L23.8907 32.5231C25.7583 32.3051 27.3571 31.7288 28.6852 30.7933C30.78 29.3044 31.8275 27.08 31.8275 24.1211C31.8275 20.6277 30.3808 18.1694 27.4866 16.7452Z" stroke="black" stroke-width="0.5"/>
</g>
</g>
<defs>
<clipPath id="clip0_1714_46">
<rect width="249" height="61" fill="white"/>
</clipPath>
</defs>
</svg>
